# xmcd
#
# Track frame offsets:
#	150
#	890
#	21328
#	36963
#	54145
#	55115
#	72355
#	85635
#	104735
#	115183
#	134183
#	145823
#	150240
#	174613
#	186870
#	200683
#
# Disc length: 2932 seconds
#
# Revision: 7
# Processed by: cddbd v1.5.2PL0 Copyright (c) Steve Scherf et al.
# Submitted via: EasyCDDAExtractor 5.0.6
#
DISCID=d70b7210
DTITLE=Modest Mouse - Good News For People Who Love Bad News
DYEAR=2004
DGENRE=Indie Rock
TTITLE0=Horn Intro
TTITLE1=The World At Large
TTITLE2=Float On
TTITLE3=Ocean Breathes Salty
TTITLE4=Dig Your Grave
TTITLE5=Bury Me With It
TTITLE6=Dance Hall
TTITLE7=Bukowski
TTITLE8=This Devil's Workday
TTITLE9=The View
TTITLE10=Satin In A Coffin
TTITLE11=Interlude (Milo)
TTITLE12=Blame It On The Tetons
TTITLE13=Black Cadillacs
TTITLE14=One Chance
TTITLE15=The Good Times Are Killing Me
EXTD=YEAR: 2004 ID3G:  17
EXTT0=
EXTT1=
EXTT2=
EXTT3=
EXTT4=
EXTT5=
EXTT6=
EXTT7=
EXTT8=
EXTT9=
EXTT10=
EXTT11=
EXTT12=
EXTT13=
EXTT14=
EXTT15=
PLAYORDER=
